<?xml version="1.0" encoding="UTF-8"?>
<svg id="yts" xmlns="http://www.w3.org/2000/svg" version="1.1" viewBox="0 0 456.3 396.9">
  <defs>
    <style>
      .cls-1 {
        fill: #000;
        stroke-width: 0px;
      }
    </style>
  </defs>
  <path class="cls-1" d="M37.8,292.9c7.5-7.4,16.2-13,26-17.1,10.8-4.4,22.1-6.4,33.7-6.8,15.1-.5,30.2.5,45.1,3.8,16.2,3.6,30.7,10.7,43.6,21,.8.7,1.7,1.3,2.5,1.9.1,0,.4,0,1.1,0-4.6-40.3-10.7-80.3-18.1-120.1-2.9,9.1-6.7,17.7-11.9,25.4-3.5,5.1-7.3,10.2-11.8,14.4-8.1,7.4-16.7,14.3-25.5,20.9-3.5,2.7-7.9,4.5-12.2,5.8-9.9,3.1-18.5-.1-24.5-8.5-5.4-7.5-7.7-16.2-9.2-25.1-3.1-17.2-2.4-34.5-1.5-51.8.6-11.4,2.1-22.7,5.7-33.7.2-.6.2-1.2.3-1.9,0-.2-.2-.4-.4-1-1.3.6-2.6,1-3.8,1.8-8.2,5.6-16.6,11-24.4,17.1-5.9,4.6-11,10.2-16.7,15.2-1.5,1.3-3.6,2-5.7,2.5,21.8-21.8,47.7-38.1,72.9-55.4.3.3.6.5,1,.8-.4,1.4-.8,2.9-1.3,4.3-8,22.6-11,46-9.5,69.9.7,10.9,3.1,21.6,8.3,31.3,4.8,9.1,11.6,15.7,22.5,16.2,3.7.2,7.5-.7,11.2-1.5,1.2-.3,2.4-1.7,3.2-2.8,11.6-16.4,18.2-34.6,21.5-54.3,1.7-10.1,3.2-20.3,5.8-30.2,1.3-4.9.9-9.2,0-13.8-.2-1.1-.7-2.1-1.2-3.5-4.4,1.6-8.5,3-12.6,4.5-.1-.2-.2-.3-.3-.5.8-.8,1.4-1.7,2.3-2.4,10.2-8.5,20.4-17.1,30.7-25.5.8-.7,2.5-.3,3.8-.5,6.9-1.4,13.9-2.8,21.2-4.3-.2-2.6-.3-5.2-.5-7.8-1.2-15.6-2.6-31.2-3.7-46.8-.3-4.6-.3-9.3,0-13.9.2-1.9,1.3-4,2.6-5.3,3.9-3.7,8.1-7,13-11.1,2.9,27.8,4.3,54.7,4.5,82.3,8.9-2.2,17.2-4.3,25.5-6.4,21.6-5.5,42-14.1,62.7-22.2,9.5-3.7,19.3-6.8,28.9-10.2.1.2.2.5.4.7-.5.6-1,1.3-1.6,1.8-6.7,5.7-13.4,11.3-20,17.1-4.6,4-10.2,5.1-15.8,6-15.2,2.3-29.3,7.8-43.6,13.3-10.7,4.1-21.6,7.9-32.5,11.7-2.2.8-2.8,1.7-2.5,4,5.2,43.7,10.1,87.5,15.3,131.3,1.8,15.5,4.2,31,6.4,46.4.1,1,.5,2,.7,3.2.4-.4.7-.5.8-.7,6.3-10.6,12.9-21.1,18.9-31.9,4.8-8.6,12.4-14.3,20.6-20.7-.7,1.4-1,2-1.4,2.7-5.5,8.9-10.7,18-16.5,26.7-9.6,14.5-10.2,30.3-6.9,46.6,1.9,9.3,5.5,17.9,11.5,25.3,7.2,8.9,16.8,13.9,27.7,16.1,28.1,5.7,53.9-.4,77.8-15.6,2-1.3,3.6-3.3,5.1-5.1,16.7-19.8,27.7-42.6,33.6-67.7,3.1-13.2,5.3-26.6,2.6-40.2-4.9-25.1-18.9-43.4-42-54.5-5.6-2.7-11.6-4.5-17.6-6.2-9.3-2.5-18.7-1.6-27.8,1.4-10.1,3.4-20.2,6.9-30.1,10.7-4.3,1.7-10.6,4.3-9.7,3.3,0-.2-8.1,2.9-12.2,4.3-7,2.4-13.9,5-21,6.9-6.7,1.8-13.1-.5-18.6-4.2-6-4-7-10.3-6-16.9,1.6-10.7,6-20.3,12.3-28.9,14.8-20.1,33.4-35.8,55.5-47.3,11.2-5.8,23.2-7.8,35.7-4.3,11,3,16,9.7,16.7,21.1.5,9.3-1.3,17.2-9.8,22.6-4.8,3.1-8.9,7.1-13.4,10.7-.8.6-1.7,1.1-3.2,2.2.6-2.3,1-3.6,1.3-5.1.9-4.3,2.1-8.6,2.6-13,1-9.1-2.9-16-11.3-20-8.7-4.1-17.7-4.3-27-2.4-16.4,3.5-27.2,14.1-35.7,27.7-4.3,7-8,14.1-9.2,22.4-1.1,8.1,2.1,14.4,9.5,17.9,7.3,3.4,14.8,5.1,22.7,2.2,9.2-3.4,18.4-6.8,27.6-10.2.8-.3,45.5-19.3,56.5-20.8,24.4-3.3,44.6,5.4,60.3,24.3,9.5,11.5,14.5,24.9,15.9,39.7.1,1.2.4,2.4.7,3.7v8.2c-.8,5-1.4,10-2.5,15-10.2,48.4-34.7,87.4-76,115.1-25.1,16.8-52.8,22-82.3,14.5-9.4-2.4-13.4-5.1-25.9-15.4-7.2,5-13,12.1-22.4,13.9,0-.5-.3-.9-.2-1.3,2-11.6.2-23.2-.8-34.7-1.7-19.6-3-39.2-4.9-58.7-2.6-26.2-5.3-52.3-8.6-78.4-3.3-26.2-7.4-52.3-11.1-78.4,0-.3-.1-.6-.3-1.3-.9.2-1.8.4-2.6.6-6.7,1.9-13.4,4-20.1,5.8-2.1.6-2.7,1.5-2.8,3.7-1.4,22.2,1.4,44.1,4.3,66,2.7,20.5,4.5,41.2,7,61.7,2.7,22.4,5.8,44.8,8.8,67.2.2,1.5,1,3.2,2,4.4,7.3,8.6,13.5,17.9,16,29.1,0,.4.2.8.3,1.2,1.8,7.5.5,13.7-6.3,18.6-7.5,5.4-14.4,11.7-21.6,17.6-.8.6-1.7,1.1-2.6,1.7.3-4.8.6-9.4.7-14,.3-8.1-1.5-15.8-4.9-23-10.3-22-24.3-40.8-46.2-52.7-13.6-7.4-28.4-10.6-43.6-12.4-14.8-1.8-29.4-1.1-43.5,4.1-6.2,2.3-11.9,5.8-17.8,8.8h0Z"/>
  <path class="cls-1" d="M37.9,292.9c-1.1,1.4-2.1,2.8-3.3,4.1-9,9.6-13.4,21.1-14.5,34-1.2,14.4-2.6,28.8-3.6,43.3-.2,3-1.1,5.2-3.5,6.9-1.8,1.3-3.6,2.8-6.1,4.9.4-4.4.7-7.9,1-11.5,1.1-13.2,2.1-26.3,3.2-39.5.9-10.8,4.9-20.3,12.2-28.3,4.5-5,9.6-9.3,14.5-14h0Z"/>
</svg>