<?xml version="1.0" encoding="UTF-8"?>
<svg id="Capa_1" data-name="Capa 1" xmlns="http://www.w3.org/2000/svg" version="1.1" viewBox="0 0 500 500">
  <defs>
    <style>
      .cls-1 {
        fill: #000;
        stroke-width: 0px;
      }
    </style>
  </defs>
  <path class="cls-1" d="M182.3,163.9c-12.2-1.7-38.5,7.9-45.3-3.8-2.1-7.7,3.8-16.1,3.6-24.1.3-15.2,2.3-33.3,14.9-43.5,12.7-6.6,28.5-3.3,42.2-6.7,2.5-.4,2.5-.7,2.5-3.2,0-7.1,0-14.2.6-21.3,2.2-10.3.1-30.2,12.6-33.4,15.9-1.7,32-1.7,48-3.2,36.3-3.7,18.4,31.8,24.3,53.5,1.2,3.6.6,11.7,6,10.9,27,1.4,77.9-20.9,76.1,24.2-2.7,13.9,19.2,49.2-3.1,51.5-31-.8-70.8,7.1-66.5,46.5,1,14.9,1.7,29.9,1.1,44.9,2.6,22,.5,43.9-2,65.8-2.6,29.1-7.2,58.1-1.5,87.1,2.9,10.4,6.1,20.7,9.7,30.9,2,5.4,6,10.6,4.7,16.7-1.4,7.4-10,7.8-16.1,7-13.1-1.3-26.1-1.4-39.2-.7-32.5,1.7-30.1-6.8-40.2-33.6-7-20.4-13.6-41.6-10-63.3,2.3-24.6,2.5-49.1,0-73.7.4-19.5-1.2-39-.3-58.4,2.4-14.7,2.5-29.8,5.1-44.4,10.2-29.8-4.5-23.9-27.3-25.6Z"/>
  <path class="cls-1" d="M54.2,353.5c.1-8.6.6-17-.2-25.5,1-9.8-8.7-31.1,1.8-36.3,15.7-4.3,32.5-3.7,48.7-4.3,18.1-1.1,19.3,9.5,21.1,24.4,2,2.9,5-1.3,4.8-3.5-1.3-7.4-2.3-14.8-3.4-22.2-1.2-8-12-6.5-18.1-6.7-11.6,1-23.3,1.7-34.9,3.1-12.6,2.4-24.4-5.5-27.4-17.7-3.6-16.4.1-34,0-50.7,2.2-11.8.8-39.2,15.8-41,16.1-2.1,32.5-.4,48.6-2.2,5.4-.6,15.1-.5,14.2,7.2-.7,9.7-.6,19.5-3.4,28.9-2.2,5.2,6.4,4.2,8.5,2.9,5.1-15.9-6.1-41.6,20.2-39.5,50.3-2.2,61.4-10.8,49.6,47.7-2.7,36.6-.6,73.3.8,109.9.2,21.8-5.8,43.3-2.2,65.2,2.3,16.8,6.2,34.9-2.9,50.5-14.9,20.9-44.4,15.9-66.8,16.5-23.8,0-44.2-15.7-58.3-33.7-14.8-20.7-17-48.2-16.7-72.9Z"/>
  <path class="cls-1" d="M368,460c-21.9,1.8-53.4.6-58.8-25.9-14.5-43.9-10.7-91-4.2-136,2.9-11.6,18.8-7.1,27.7-7.9,10.2.7,21.6-2.4,30.5,3.9,5,3.4,7.9,9.5,5.9,15.5-1.9,4.6.6,13.5,6.8,9.8,10.2-9.1,1.4-29.8-9.2-35.3-25-5.7-54.9,8.2-59.1-30.7,1.6-20.3-7.7-41.8-.8-61.4,13.3-22.8,43.8-19,66.5-20.6,25.6-2.4,50.1,13,65.3,32.6,3.7,5.9,15.8,43.7,1.8,41.3-13.2-1.7-26.4-3-39.6-4.4-11.2-1.8-15.7-2.7-16.7-14.8-10.7-12.9-12.1,11.3-2.5,14.8,23.4,11.6,41-.7,61.3,24.4,15.9,22.8,7.8,78.1,10.4,106.5,1.3,21.8-1.4,44-10.9,63.9-15.9,22.3-49.1,23.8-74.4,24.2Z"/>
</svg>